<svg width="61" height="51" viewBox="0 0 61 51" fill="none" xmlns="http://www.w3.org/2000/svg">
<path d="M0.5 48L5.49936 50.8879L5.50064 45.1143L0.5 48ZM1.52947 48.5002C1.80561 48.5003 2.02956 48.2766 2.02968 48.0004C2.0298 47.7243 1.80604 47.5003 1.5299 47.5002L1.52947 48.5002ZM3.5543 47.5018C3.27816 47.5015 3.05405 47.7251 3.05375 48.0013C3.05345 48.2774 3.27706 48.5015 3.5532 48.5018L3.5543 47.5018ZM5.53046 48.5044C5.80661 48.5048 6.0308 48.2813 6.03121 48.0051C6.03161 47.729 5.80809 47.5048 5.53195 47.5044L5.53046 48.5044ZM7.57678 47.5076C7.30063 47.5072 7.07643 47.7307 7.07599 48.0068C7.07556 48.2829 7.29907 48.5072 7.57521 48.5076L7.57678 47.5076ZM9.57304 48.5105C9.84918 48.5109 10.0733 48.2873 10.0737 48.0111C10.074 47.735 9.85047 47.5109 9.57433 47.5105L9.57304 48.5105ZM11.5916 47.5125C11.3154 47.5123 11.0914 47.736 11.0913 48.0122C11.0911 48.2883 11.3148 48.5123 11.591 48.5125L11.5916 47.5125ZM13.6057 48.5125C13.8818 48.5124 14.1055 48.2884 14.1053 48.0122C14.1052 47.7361 13.8812 47.5124 13.605 47.5125L13.6057 48.5125ZM15.6046 47.5097C15.3285 47.5103 15.1052 47.7347 15.1058 48.0108C15.1065 48.287 15.3309 48.5103 15.607 48.5096L15.6046 47.5097ZM17.6334 48.5025C17.9095 48.5011 18.1323 48.2762 18.131 48.0001C18.1297 47.7239 17.9047 47.5012 17.6286 47.5025L17.6334 48.5025ZM19.6203 47.4898C19.3442 47.492 19.1221 47.7177 19.1244 47.9938C19.1266 48.2699 19.3522 48.492 19.6284 48.4898L19.6203 47.4898ZM21.6597 48.4693C21.9358 48.4659 22.1569 48.2393 22.1535 47.9632C22.1501 47.6871 21.9235 47.466 21.6474 47.4694L21.6597 48.4693ZM23.6403 47.4398C23.3642 47.4447 23.1443 47.6724 23.1492 47.9485C23.154 48.2246 23.3818 48.4445 23.6579 48.4397L23.6403 47.4398ZM25.685 48.3975C25.9611 48.3908 26.1794 48.1615 26.1727 47.8855C26.166 47.6094 25.9368 47.3911 25.6607 47.3978L25.685 48.3975ZM27.6621 47.3411C27.3861 47.3501 27.1696 47.5811 27.1787 47.8571C27.1877 48.1331 27.4187 48.3496 27.6947 48.3406L27.6621 47.3411ZM29.7058 48.2649C29.9817 48.253 30.1957 48.0197 30.1839 47.7438C30.172 47.468 29.9387 47.2539 29.6628 47.2658L29.7058 48.2649ZM31.6765 47.1666C31.4007 47.1821 31.1897 47.4181 31.2052 47.6938C31.2206 47.9695 31.4566 48.1805 31.7323 48.1651L31.6765 47.1666ZM33.7255 48.0384C34.0009 48.0186 34.2082 47.7793 34.1885 47.5039C34.1687 47.2285 33.9294 47.0212 33.654 47.041L33.7255 48.0384ZM35.6643 46.8774C35.3893 46.9026 35.1868 47.146 35.212 47.421C35.2373 47.696 35.4806 47.8984 35.7556 47.8732L35.6643 46.8774ZM37.7731 47.6639C38.0474 47.6318 38.2438 47.3835 38.2118 47.1093C38.1798 46.835 37.9315 46.6386 37.6572 46.6706L37.7731 47.6639ZM39.6251 46.4115C39.352 46.4519 39.1633 46.7061 39.2037 46.9793C39.244 47.2524 39.4982 47.4411 39.7714 47.4007L39.6251 46.4115ZM41.764 47.0683C42.0354 47.0175 42.2142 46.7562 42.1634 46.4848C42.1125 46.2134 41.8512 46.0346 41.5798 46.0854L41.764 47.0683ZM43.534 45.6714C43.2654 45.7355 43.0996 46.0052 43.1637 46.2738C43.2278 46.5424 43.4976 46.7082 43.7662 46.644L43.534 45.6714ZM45.7404 46.1103C46.0046 46.0297 46.1534 45.7503 46.0728 45.4862C45.9922 45.2221 45.7128 45.0733 45.4486 45.1538L45.7404 46.1103ZM47.3115 44.5086C47.0544 44.6094 46.9277 44.8996 47.0285 45.1566C47.1293 45.4137 47.4195 45.5404 47.6766 45.4396L47.3115 44.5086ZM49.5539 44.6011C49.8001 44.4761 49.8984 44.1752 49.7735 43.929C49.6485 43.6827 49.3476 43.5844 49.1014 43.7093L49.5539 44.6011ZM50.7881 42.7316C50.5578 42.8839 50.4945 43.1941 50.6467 43.4244C50.799 43.6548 51.1092 43.7181 51.3396 43.5658L50.7881 42.7316ZM52.9912 42.3159C53.2 42.1352 53.2229 41.8194 53.0422 41.6106C52.8615 41.4018 52.5457 41.379 52.3369 41.5596L52.9912 42.3159ZM53.7161 40.1932C53.5335 40.4003 53.5533 40.7163 53.7604 40.899C53.9675 41.0816 54.2835 41.0618 54.4661 40.8547L53.7161 40.1932ZM55.7344 39.2116C55.889 38.9827 55.8287 38.672 55.5999 38.5174C55.371 38.3629 55.0602 38.4231 54.9057 38.652L55.7344 39.2116ZM55.9017 36.9735C55.7741 37.2184 55.8692 37.5204 56.1141 37.648C56.359 37.7756 56.661 37.6805 56.7886 37.4356L55.9017 36.9735ZM57.649 35.5657C57.7527 35.3098 57.6294 35.0182 57.3735 34.9144C57.1176 34.8106 56.826 34.934 56.7223 35.1899L57.649 35.5657ZM57.3914 33.3293C57.3077 33.5925 57.4531 33.8737 57.7162 33.9574C57.9793 34.0412 58.2606 33.8958 58.3443 33.6326L57.3914 33.3293ZM58.8993 31.6762C58.9669 31.4084 58.8045 31.1366 58.5368 31.0691C58.269 31.0016 57.9972 31.1639 57.9297 31.4317L58.8993 31.6762ZM58.3643 29.5039C58.3099 29.7747 58.4852 30.0382 58.756 30.0927C59.0267 30.1471 59.2903 29.9717 59.3447 29.701L58.3643 29.5039ZM59.7036 27.7077C59.7474 27.435 59.562 27.1785 59.2893 27.1346C59.0167 27.0908 58.7601 27.2763 58.7163 27.5489L59.7036 27.7077ZM59.0021 25.5652C58.9668 25.8391 59.1603 26.0897 59.4342 26.1249C59.7081 26.1601 59.9587 25.9667 59.9939 25.6928L59.0021 25.5652ZM60.2266 23.6745C60.2549 23.3998 60.0551 23.1542 59.7804 23.126C59.5057 23.0977 59.2601 23.2975 59.2318 23.5722L60.2266 23.6745ZM59.414 21.5981C59.3914 21.8733 59.5961 22.1148 59.8713 22.1374C60.1465 22.1601 60.388 21.9554 60.4107 21.6802L59.414 21.5981ZM60.5599 19.6531C60.5779 19.3775 60.3691 19.1395 60.0936 19.1215C59.818 19.1035 59.58 19.3123 59.562 19.5878L60.5599 19.6531ZM59.6784 17.592C59.6641 17.8678 59.8761 18.1029 60.1519 18.1172C60.4277 18.1314 60.6628 17.9194 60.677 17.6436L59.6784 17.592ZM60.769 15.6343C60.7802 15.3584 60.5655 15.1257 60.2896 15.1146C60.0137 15.1035 59.781 15.3181 59.7699 15.594L60.769 15.6343ZM59.8415 13.5733C59.833 13.8493 60.0498 14.08 60.3258 14.0885C60.6018 14.0971 60.8325 13.8802 60.841 13.6042L59.8415 13.5733ZM60.8949 11.6084C60.9013 11.3323 60.6827 11.1033 60.4066 11.0969C60.1306 11.0905 59.9016 11.3091 59.8951 11.5851L60.8949 11.6084ZM59.9356 9.55501C59.931 9.83111 60.1511 10.0587 60.4272 10.0634C60.7033 10.068 60.9309 9.84796 60.9355 9.57186L59.9356 9.55501ZM60.9638 7.58101C60.967 7.30489 60.7458 7.07843 60.4697 7.07519C60.1935 7.07196 59.9671 7.29318 59.9638 7.56931L60.9638 7.58101ZM59.9831 5.54138C59.981 5.81752 60.2032 6.04303 60.4794 6.04507C60.7555 6.04711 60.981 5.82492 60.983 5.54879L59.9831 5.54138ZM60.9943 3.55238C60.9954 3.27624 60.7724 3.0515 60.4963 3.0504C60.2201 3.0493 59.9954 3.27227 59.9943 3.54841L60.9943 3.55238ZM59.9994 1.53122C59.9991 1.80737 60.2227 2.03149 60.4988 2.03182C60.7749 2.03215 60.9991 1.80856 60.9994 1.53242L59.9994 1.53122ZM3.5532 48.5018C4.22001 48.5025 4.87906 48.5034 5.53046 48.5044L5.53195 47.5044C4.88047 47.5034 4.22128 47.5025 3.5543 47.5018L3.5532 48.5018ZM7.57521 48.5076C8.24963 48.5086 8.91555 48.5097 9.57304 48.5105L9.57433 47.5105C8.91698 47.5097 8.25117 47.5086 7.57678 47.5076L7.57521 48.5076ZM11.591 48.5125C12.2719 48.5129 12.9434 48.5129 13.6057 48.5125L13.605 47.5125C12.9433 47.5129 12.2722 47.5129 11.5916 47.5125L11.591 48.5125ZM15.607 48.5096C16.2928 48.508 16.9682 48.5057 17.6334 48.5025L17.6286 47.5025C16.9643 47.5057 16.2897 47.508 15.6046 47.5097L15.607 48.5096ZM19.6284 48.4898C20.3168 48.4842 20.9939 48.4775 21.6597 48.4693L21.6474 47.4694C20.9831 47.4775 20.3075 47.4843 19.6203 47.4898L19.6284 48.4898ZM23.6579 48.4397C24.3461 48.4276 25.0218 48.4136 25.685 48.3975L25.6607 47.3978C24.9999 47.4138 24.3265 47.4278 23.6403 47.4398L23.6579 48.4397ZM27.6947 48.3406C28.3789 48.3182 29.0492 48.2931 29.7058 48.2649L29.6628 47.2658C29.01 47.2939 28.3431 47.3189 27.6621 47.3411L27.6947 48.3406ZM31.7323 48.1651C32.4122 48.127 33.0765 48.0849 33.7255 48.0384L33.654 47.041C33.0106 47.0871 32.3515 47.1289 31.6765 47.1666L31.7323 48.1651ZM35.7556 47.8732C36.4465 47.8098 37.1188 47.7402 37.7731 47.6639L37.6572 46.6706C37.0117 46.7459 36.3476 46.8147 35.6643 46.8774L35.7556 47.8732ZM39.7714 47.4007C40.4568 47.2994 41.1208 47.1889 41.764 47.0683L41.5798 46.0854C40.9503 46.2034 40.299 46.3119 39.6251 46.4115L39.7714 47.4007ZM43.7662 46.644C44.4498 46.4809 45.1076 46.3034 45.7404 46.1103L45.4486 45.1538C44.8372 45.3404 44.1993 45.5126 43.534 45.6714L43.7662 46.644ZM47.6766 45.4396C48.3323 45.1825 48.9577 44.9036 49.5539 44.6011L49.1014 43.7093C48.5357 43.9964 47.9397 44.2623 47.3115 44.5086L47.6766 45.4396ZM51.3396 43.5658C51.9232 43.18 52.4732 42.7641 52.9912 42.3159L52.3369 41.5596C51.8524 41.9788 51.3369 42.3688 50.7881 42.7316L51.3396 43.5658ZM54.4661 40.8547C54.9192 40.3409 55.3413 39.7938 55.7344 39.2116L54.9057 38.652C54.5358 39.1997 54.1399 39.7127 53.7161 40.1932L54.4661 40.8547ZM56.7886 37.4356C57.0974 36.8429 57.3836 36.2201 57.649 35.5657L56.7223 35.1899C56.468 35.817 56.1949 36.4109 55.9017 36.9735L56.7886 37.4356ZM58.3443 33.6326C58.5437 33.0062 58.7283 32.3544 58.8993 31.6762L57.9297 31.4317C57.7633 32.0917 57.5841 32.7239 57.3914 33.3293L58.3443 33.6326ZM59.3447 29.701C59.4739 29.0582 59.5933 28.394 59.7036 27.7077L58.7163 27.5489C58.6078 28.2235 58.4907 28.8749 58.3643 29.5039L59.3447 29.701ZM59.9939 25.6928C60.078 25.0387 60.1554 24.3661 60.2266 23.6745L59.2318 23.5722C59.1615 24.256 59.085 24.9202 59.0021 25.5652L59.9939 25.6928ZM60.4107 21.6802C60.465 21.0207 60.5146 20.3451 60.5599 19.6531L59.562 19.5878C59.5171 20.2747 59.4679 20.9446 59.414 21.5981L60.4107 21.6802ZM60.677 17.6436C60.7109 16.9878 60.7415 16.3182 60.769 15.6343L59.7699 15.594C59.7424 16.2744 59.712 16.9403 59.6784 17.592L60.677 17.6436ZM60.841 13.6042C60.8612 12.9512 60.8791 12.286 60.8949 11.6084L59.8951 11.5851C59.8794 12.2604 59.8616 12.9231 59.8415 13.5733L60.841 13.6042ZM60.9355 9.57186C60.9465 8.91926 60.9559 8.25571 60.9638 7.58101L59.9638 7.56931C59.956 8.24243 59.9466 8.90426 59.9356 9.55501L60.9355 9.57186ZM60.983 5.54879C60.9879 4.8934 60.9916 4.22798 60.9943 3.55238L59.9943 3.54841C59.9916 4.22297 59.9879 4.88724 59.9831 5.54138L60.983 5.54879ZM60.9994 1.53242C60.9998 1.19078 61 0.846644 61 0.5H60C60 0.846269 59.9998 1.19 59.9994 1.53122L60.9994 1.53242Z" fill="black"/>
</svg>
