<svg width="12" height="14" viewBox="0 0 12 14" fill="none" xmlns="http://www.w3.org/2000/svg">
<path d="M2.43769 2.39702L5.96019 0.346603L9.48271 2.39702L8.18767 3.1545L5.96019 1.86156L3.73273 3.1545L2.43769 2.39702ZM9.48271 4.9829L8.18767 4.22542L5.96019 5.51835L3.73273 4.22542L2.43769 4.9829V6.49785L4.66515 7.79079V10.3766L5.96019 11.1341L7.25525 10.3766V7.79079L9.48271 6.49785V4.9829ZM9.48271 9.08371V7.56877L8.18767 8.32625V9.84119L9.48271 9.08371ZM10.4022 9.61917L8.17473 10.9121V12.4271L11.6973 10.3766V6.27583L10.4022 7.03331V9.61917ZM9.10717 3.68996L10.4022 4.44744V5.9624L11.6973 5.20492V3.68996L10.4022 2.93248L9.10717 3.68996ZM4.66515 11.4606V12.9756L5.96019 13.7331L7.25525 12.9756V11.4606L5.96019 12.2181L4.66515 11.4606ZM2.43769 9.08371L3.73273 9.84119V8.32625L2.43769 7.56877V9.08371ZM4.66515 3.68996L5.96019 4.44744L7.25525 3.68996L5.96019 2.93248L4.66515 3.68996ZM1.51819 4.44744L2.81323 3.68996L1.51819 2.93248L0.223145 3.68996V5.20492L1.51819 5.9624V4.44744ZM1.51819 7.03331L0.223145 6.27583V10.3766L3.74567 12.4271V10.9121L1.51819 9.61917V7.03331Z" fill="white"/>
</svg>
