<svg width="22" height="20" viewBox="0 0 22 20" fill="none" xmlns="http://www.w3.org/2000/svg">
<path d="M1.33329 5.72168L18.78 5.72168L15.5266 8.97503C15.2666 9.23503 15.2666 9.6617 15.5266 9.9217C15.7866 10.1817 16.2066 10.1817 16.4666 9.9217L20.86 5.52834C21.12 5.26834 21.12 4.84834 20.86 4.58834L16.4666 0.195009C16.2066 -0.0649907 15.7866 -0.0649907 15.5266 0.19501C15.2666 0.45501 15.2666 0.875011 15.5266 1.13501L18.78 4.38834L1.33329 4.38834C0.966626 4.38834 0.666626 4.68834 0.666626 5.05501C0.666626 5.42168 0.966626 5.72168 1.33329 5.72168Z" fill="#814A0A"/>
<path d="M20.3883 13.395L2.9416 13.395L6.19493 10.1417C6.45493 9.88167 6.45493 9.455 6.19493 9.195C5.93493 8.935 5.51493 8.935 5.25493 9.195L0.861599 13.5884C0.601599 13.8484 0.601599 14.2684 0.861599 14.5284L5.25493 18.9217C5.51493 19.1817 5.93493 19.1817 6.19493 18.9217C6.45493 18.6617 6.45493 18.2417 6.19493 17.9817L2.9416 14.7284L20.3883 14.7284C20.7549 14.7284 21.0549 14.4284 21.0549 14.0617C21.0549 13.695 20.7549 13.395 20.3883 13.395Z" fill="#814A0A"/>
</svg>
