<svg width="116" height="43" viewBox="0 0 116 43" fill="none" xmlns="http://www.w3.org/2000/svg">
<path d="M71.7 16.2198C67.1093 16.2198 64.814 13.8071 64.814 8.98177C64.814 6.38577 65.3933 4.50844 66.552 3.34977C67.7107 2.1911 69.4267 1.61177 71.7 1.61177C73.9733 1.61177 75.6893 2.1911 76.848 3.34977C78.0067 4.50844 78.586 6.38577 78.586 8.98177C78.586 13.8071 76.2907 16.2198 71.7 16.2198ZM71.7 13.6898C73.0347 13.6898 74.01 13.3084 74.626 12.5458C75.2567 11.7684 75.572 10.5804 75.572 8.98177C75.572 7.2071 75.2567 5.96044 74.626 5.24177C74.01 4.50844 73.0347 4.14177 71.7 4.14177C70.3653 4.14177 69.3827 4.50844 68.752 5.24177C68.136 5.96044 67.828 7.2071 67.828 8.98177C67.828 10.5804 68.136 11.7684 68.752 12.5458C69.3827 13.3084 70.3653 13.6898 71.7 13.6898Z" fill="#F9AA4B"/>
<path d="M84.1175 15.9998L80.0035 5.57177H83.1055L85.7015 13.0078L88.3195 5.57177H91.3995L87.3075 15.9998H84.1175Z" fill="#F9AA4B"/>
<path d="M97.7153 16.2198C95.9113 16.2198 94.4813 15.7724 93.4253 14.8778C92.3693 13.9684 91.8413 12.5971 91.8413 10.7638C91.8413 9.10644 92.2813 7.79377 93.1613 6.82577C94.056 5.8431 95.3833 5.35177 97.1433 5.35177C98.7567 5.35177 99.9887 5.7771 100.839 6.62777C101.705 7.46377 102.137 8.56377 102.137 9.92777V11.8198H94.5913C94.7527 12.6558 95.134 13.2278 95.7353 13.5358C96.3513 13.8438 97.2167 13.9978 98.3313 13.9978C98.8887 13.9978 99.4533 13.9464 100.025 13.8438C100.612 13.7411 101.111 13.6091 101.521 13.4478V15.5598C101.037 15.7798 100.473 15.9411 99.8273 16.0438C99.182 16.1611 98.478 16.2198 97.7153 16.2198ZM94.5913 9.99377H99.5413V9.42177C99.5413 8.82044 99.3653 8.3511 99.0133 8.01377C98.6613 7.66177 98.0673 7.48577 97.2313 7.48577C96.2487 7.48577 95.5593 7.68377 95.1633 8.07977C94.782 8.47577 94.5913 9.11377 94.5913 9.99377Z" fill="#F9AA4B"/>
<path d="M104.205 15.9998V5.57177H106.955L107.065 6.56177C107.491 6.2391 108.026 5.96044 108.671 5.72577C109.331 5.47644 110.021 5.35177 110.739 5.35177C112.118 5.35177 113.123 5.67444 113.753 6.31977C114.384 6.9651 114.699 7.96244 114.699 9.31177V15.9998H111.729V9.46577C111.729 8.76177 111.583 8.2631 111.289 7.96977C111.011 7.67644 110.483 7.52977 109.705 7.52977C109.251 7.52977 108.789 7.63244 108.319 7.83777C107.865 8.0431 107.483 8.29977 107.175 8.60777V15.9998H104.205Z" fill="#F9AA4B"/>
<path d="M69.654 38.2198C68.7447 38.2198 67.894 38.1538 67.102 38.0218C66.3247 37.8898 65.65 37.6991 65.078 37.4498V34.8318C65.7233 35.0958 66.42 35.3084 67.168 35.4698C67.916 35.6311 68.6493 35.7118 69.368 35.7118C70.3947 35.7118 71.15 35.6164 71.634 35.4258C72.118 35.2351 72.36 34.8024 72.36 34.1278C72.36 33.7024 72.2573 33.3651 72.052 33.1158C71.8467 32.8664 71.4873 32.6464 70.974 32.4558C70.4753 32.2504 69.764 32.0231 68.84 31.7738C67.3587 31.3631 66.3173 30.8498 65.716 30.2338C65.1147 29.6178 64.814 28.7671 64.814 27.6818C64.814 26.3764 65.2907 25.3718 66.244 24.6678C67.1973 23.9638 68.5833 23.6118 70.402 23.6118C71.2527 23.6118 72.0447 23.6704 72.778 23.7878C73.5113 23.9051 74.1053 24.0444 74.56 24.2058V26.8238C73.3573 26.3691 72.1033 26.1418 70.798 26.1418C69.874 26.1418 69.148 26.2444 68.62 26.4498C68.092 26.6404 67.828 27.0511 67.828 27.6818C67.828 28.0484 67.9233 28.3418 68.114 28.5618C68.3047 28.7818 68.6273 28.9798 69.082 29.1558C69.5513 29.3318 70.204 29.5298 71.04 29.7498C72.1987 30.0578 73.0933 30.4244 73.724 30.8498C74.3547 31.2751 74.7873 31.7591 75.022 32.3018C75.2713 32.8444 75.396 33.4531 75.396 34.1278C75.396 35.3598 74.9267 36.3498 73.988 37.0978C73.0493 37.8458 71.6047 38.2198 69.654 38.2198Z" fill="#F9AA4B"/>
<path d="M79.2085 37.9998L76.4585 27.5718H79.4285L81.0125 34.3478L82.7505 28.9138V27.5718H85.0165L86.9965 34.3478L88.5365 27.5718H91.4845L88.7565 37.9998H86.0285L84.0265 31.9058L81.9805 37.9998H79.2085Z" fill="#F9AA4B"/>
<path d="M95.8386 38.2198C95.1786 38.2198 94.5626 38.1024 93.9906 37.8678C93.4333 37.6184 92.9786 37.2591 92.6266 36.7898C92.2893 36.3058 92.1206 35.7044 92.1206 34.9858C92.1206 33.9591 92.48 33.1378 93.1986 32.5218C93.932 31.9058 95.01 31.5978 96.4326 31.5978H99.5126V31.3118C99.5126 30.6664 99.3293 30.2118 98.9626 29.9478C98.6106 29.6838 97.892 29.5518 96.8066 29.5518C95.6186 29.5518 94.4746 29.7351 93.3746 30.1018V28.0118C93.8586 27.8211 94.4453 27.6671 95.1346 27.5498C95.8386 27.4178 96.6013 27.3518 97.4226 27.3518C98.992 27.3518 100.202 27.6744 101.053 28.3198C101.918 28.9504 102.351 29.9698 102.351 31.3778V37.9998H99.7766L99.6226 37.0538C99.212 37.4204 98.706 37.7064 98.1046 37.9118C97.5033 38.1171 96.748 38.2198 95.8386 38.2198ZM96.6526 36.2618C97.3126 36.2618 97.8846 36.1518 98.3686 35.9318C98.8526 35.7118 99.234 35.4331 99.5126 35.0958V33.4458H96.4986C95.34 33.4458 94.7606 33.9224 94.7606 34.8758C94.7606 35.7998 95.3913 36.2618 96.6526 36.2618Z" fill="#F9AA4B"/>
<path d="M104.742 42.7518V27.5718H107.316L107.47 28.5398C107.925 28.1584 108.424 27.8651 108.966 27.6598C109.509 27.4544 110.147 27.3518 110.88 27.3518C112.406 27.3518 113.579 27.7698 114.4 28.6058C115.236 29.4271 115.654 30.7764 115.654 32.6538C115.654 34.5311 115.207 35.9318 114.312 36.8558C113.432 37.7651 112.23 38.2198 110.704 38.2198C109.531 38.2198 108.534 37.9558 107.712 37.4278V42.7518H104.742ZM109.956 36.0418C110.836 36.0418 111.504 35.7704 111.958 35.2278C112.413 34.6851 112.64 33.8344 112.64 32.6758C112.64 31.5611 112.435 30.7618 112.024 30.2778C111.614 29.7791 110.954 29.5298 110.044 29.5298C109.135 29.5298 108.358 29.8451 107.712 30.4758V35.2498C108.02 35.4844 108.343 35.6751 108.68 35.8218C109.032 35.9684 109.458 36.0418 109.956 36.0418Z" fill="#F9AA4B"/>
<path d="M11.1614 40.79C11.1614 41.4621 10.6235 41.9998 9.9511 41.9998H6.522C5.84963 41.9998 5.31174 41.4621 5.31174 40.79C5.31174 40.1179 5.84963 39.5802 6.522 39.5802H10.0183C10.6235 39.6474 11.1614 40.1179 11.1614 40.79Z" fill="#F9AA4B"/>
<path d="M43.5697 40.79C43.5697 41.4621 44.1076 41.9998 44.7799 41.9998H48.2763C48.9487 41.9998 49.4865 41.4621 49.4865 40.79C49.4865 40.1179 48.9487 39.5802 48.2763 39.5802H44.7799C44.1076 39.6474 43.5697 40.1179 43.5697 40.79Z" fill="#F9AA4B"/>
<path d="M55 37.6982C55 38.7736 54.1259 39.7146 52.9829 39.7146H2.01711C0.874083 39.7146 0 38.7736 0 37.6982V2.41233C0 1.33695 0.874083 0.395996 2.01711 0.395996H52.9829C54.1259 0.395996 55 1.33695 55 2.41233V37.6982Z" fill="#47C6CC"/>
<path d="M52.176 37.8327H2.82396C1.27751 37.8327 0 36.6229 0 35.1442V36.8917C0 38.4376 1.27751 39.7146 2.82396 39.7146H52.2433C53.7897 39.7146 55.0672 38.4376 55.0672 36.8917V35.1442C55 36.6229 53.7225 37.8327 52.176 37.8327Z" fill="#26A2BD"/>
<path d="M37.5856 32.6574C37.5856 33.7328 36.7115 34.6737 35.5685 34.6737H5.71516C4.57213 34.6737 3.69804 33.7328 3.69804 32.6574V7.52039C3.69804 6.44501 4.57213 5.50405 5.71516 5.50405H35.5685C36.7115 5.50405 37.5856 6.44501 37.5856 7.52039V32.6574Z" fill="#0E4F5C"/>
<path d="M8.53912 31.8509C7.39609 31.8509 6.522 30.9099 6.522 29.8345V10.2761C6.522 9.20067 7.39609 8.25971 8.53912 8.25971H32.7445C33.8875 8.25971 34.7616 9.20067 34.7616 10.2761V29.8345C34.7616 30.9099 33.8875 31.8509 32.7445 31.8509H8.53912Z" fill="#F9AA4B"/>
<path d="M41.4181 31.7164C41.4181 32.1197 41.0819 32.3886 40.7457 32.3886C40.3423 32.3886 40.0733 32.0525 40.0733 31.7164V8.99904C40.0733 8.59577 40.4095 8.32692 40.7457 8.32692C41.1491 8.32692 41.4181 8.66298 41.4181 8.99904V31.7164Z" fill="white"/>
<path d="M52.0416 9.40231C52.0416 11.5531 50.2934 13.3678 48.0746 13.3678C45.923 13.3678 44.1076 11.6203 44.1076 9.40231C44.1076 7.25154 45.8557 5.43684 48.0746 5.43684C50.2934 5.50405 52.0416 7.25154 52.0416 9.40231Z" fill="white"/>
<path d="M48.1418 12.4268C46.4609 12.4268 45.1161 11.0826 45.1161 9.40231C45.1161 7.72202 46.4609 6.3778 48.1418 6.3778C49.8227 6.3778 51.1675 7.72202 51.1675 9.40231C51.1002 11.0826 49.7555 12.4268 48.1418 12.4268Z" fill="#F8472F"/>
<path d="M52.0416 19.4168C52.0416 21.5675 50.2934 23.3822 48.0746 23.3822C45.923 23.3822 44.1076 21.6348 44.1076 19.4168C44.1076 17.266 45.8557 15.4513 48.0746 15.4513C50.2934 15.4513 52.0416 17.1988 52.0416 19.4168Z" fill="white"/>
<path d="M48.1418 22.3741C46.4609 22.3741 45.1161 21.0299 45.1161 19.3496C45.1161 17.6693 46.4609 16.3251 48.1418 16.3251C49.8227 16.3251 51.1675 17.6693 51.1675 19.3496C51.1002 21.0299 49.7555 22.3741 48.1418 22.3741Z" fill="#F8472F"/>
<path d="M48.1418 21.7692C46.5281 21.7692 45.2506 20.6266 45.1834 19.2824C45.1834 19.3496 45.1834 19.4168 45.1834 19.484C45.1834 21.1643 46.5281 22.5085 48.209 22.5085C49.89 22.5085 51.2347 21.1643 51.2347 19.484C51.2347 19.4168 51.2347 19.3496 51.2347 19.2824C51.033 20.6266 49.7555 21.7692 48.1418 21.7692Z" fill="#F03118"/>
<path d="M48.1418 11.7547C46.5281 11.7547 45.2506 10.6121 45.1834 9.26788C45.1834 9.33509 45.1834 9.4023 45.1834 9.46952C45.1834 11.1498 46.5281 12.494 48.209 12.494C49.89 12.494 51.2347 11.1498 51.2347 9.46952C51.2347 9.4023 51.2347 9.33509 51.2347 9.26788C51.033 10.6121 49.7555 11.7547 48.1418 11.7547Z" fill="#F03118"/>
<path d="M52.0416 26.6084H44.1748V29.6329H52.0416V26.6084Z" fill="#FFC259"/>
<path d="M52.0416 31.8509H44.1748V34.8754H52.0416V31.8509Z" fill="#FFC259"/>
</svg>
