<svg width="18" height="18" viewBox="0 0 18 18" fill="none" xmlns="http://www.w3.org/2000/svg">
<path d="M9 18C13.9706 18 18 13.9706 18 9C18 4.02944 13.9706 0 9 0C4.02944 0 0 4.02944 0 9C0 13.9706 4.02944 18 9 18Z" fill="#F0B90B"/>
<path d="M5.79387 4.85731L8.96412 3.01193L12.1344 4.85731L10.9689 5.53904L8.96412 4.3754L6.95941 5.53904L5.79387 4.85731ZM12.1344 7.1846L10.9689 6.50286L8.96412 7.66651L6.95941 6.50286L5.79387 7.1846V8.54806L7.79858 9.7117V12.039L8.96412 12.7207L10.1297 12.039V9.7117L12.1344 8.54806V7.1846ZM12.1344 10.8753V9.51188L10.9689 10.1936V11.5571L12.1344 10.8753ZM12.9619 11.3572L10.9572 12.5209V13.8843L14.1275 12.039V8.34824L12.9619 9.02997V11.3572ZM11.7964 6.02095L12.9619 6.70268V8.06614L14.1275 7.38441V6.02095L12.9619 5.33922L11.7964 6.02095ZM7.79858 13.0146V14.378L8.96412 15.0597L10.1297 14.378V13.0146L8.96412 13.6963L7.79858 13.0146ZM5.79387 10.8753L6.95941 11.5571V10.1936L5.79387 9.51188V10.8753ZM7.79858 6.02095L8.96412 6.70268L10.1297 6.02095L8.96412 5.33922L7.79858 6.02095ZM4.96632 6.70268L6.13186 6.02095L4.96632 5.33922L3.80078 6.02095V7.38441L4.96632 8.06614V6.70268ZM4.96632 9.02997L3.80078 8.34824V12.039L6.97105 13.8843V12.5209L4.96632 11.3572V9.02997Z" fill="white"/>
</svg>
