<svg width="83" height="79" viewBox="0 0 83 79" fill="none" xmlns="http://www.w3.org/2000/svg">
<path fill-rule="evenodd" clip-rule="evenodd" d="M74.5044 25.8928L81.6968 35.1223C82.8091 36.5496 82.5537 38.6083 81.1265 39.7205L56.9894 58.5302L32.0254 77.9844C30.5981 79.0966 28.5394 78.8413 27.4272 77.414L20.2347 68.1845C24.5165 64.8478 25.2826 58.6718 21.9459 54.39C18.6092 50.1083 12.4332 49.3422 8.15141 52.6789L1.25182 43.8252C0.139576 42.3979 0.394944 40.3392 1.8222 39.227C1.8244 39.2253 1.82661 39.2236 1.82883 39.2218L26.5513 20.0576L50.9167 0.968393C52.341 -0.147538 54.4004 0.102501 55.5163 1.52687C55.518 1.52909 55.5198 1.53132 55.5215 1.53355L62.4211 10.3872C58.1393 13.7239 57.3732 19.8999 60.7099 24.1817C64.0466 28.4634 70.2226 29.2295 74.5044 25.8928ZM37.4151 15.6096L40.4472 19.5005C41.0034 20.2141 42.0327 20.3418 42.7463 19.7857C43.4599 19.2296 43.5876 18.2002 43.0315 17.4866L39.9994 13.5957C39.4433 12.8821 38.414 12.7544 37.7003 13.3105C36.9867 13.8667 36.859 14.896 37.4151 15.6096ZM66.1912 47.2057L63.1704 43.3293C62.6143 42.6156 61.5849 42.488 60.8713 43.0441C60.1577 43.6002 60.03 44.6295 60.5861 45.3432L63.607 49.2196C64.1631 49.9332 65.1924 50.0609 65.906 49.5048C66.6197 48.9486 66.7474 47.9193 66.1912 47.2057ZM44.475 24.669L48.5028 29.8376C49.0589 30.5512 50.0882 30.6789 50.8019 30.1227C51.5155 29.5666 51.6432 28.5373 51.0871 27.8237L47.0593 22.6551C46.5032 21.9415 45.4738 21.8138 44.7602 22.3699C44.0466 22.9261 43.9189 23.9554 44.475 24.669ZM52.5306 35.0061L56.5584 40.1746C57.1145 40.8883 58.1438 41.0159 58.8574 40.4598C59.5711 39.9037 59.6987 38.8744 59.1426 38.1607L55.1148 32.9922C54.5587 32.2786 53.5294 32.1509 52.8158 32.707C52.1021 33.2631 51.9745 34.2925 52.5306 35.0061Z" fill="#42E8E0"/>
</svg>
