<svg width="73" height="73" viewBox="0 0 73 73" fill="none" xmlns="http://www.w3.org/2000/svg">
<path d="M31.3988 49.0298C31.737 49.0326 32.0685 48.9352 32.3513 48.7497C32.6342 48.5641 32.8557 48.2989 32.9878 47.9876C33.1199 47.6762 33.1568 47.3326 33.0937 47.0003C33.0306 46.668 32.8703 46.3619 32.6333 46.1206C32.3962 45.8794 32.0929 45.7138 31.7618 45.6449C31.4306 45.576 31.0865 45.6068 30.7728 45.7335C30.4592 45.8602 30.1901 46.077 29.9997 46.3565C29.8093 46.6361 29.706 46.9658 29.703 47.304C29.7004 47.7573 29.8774 48.1932 30.1951 48.5166C30.5128 48.8399 30.9455 49.0244 31.3988 49.0298ZM21.8409 23.847C21.5091 23.8501 21.1857 23.9516 20.9115 24.1384C20.6373 24.3253 20.4246 24.5892 20.3003 24.8969C20.1759 25.2045 20.1456 25.5421 20.213 25.867C20.2804 26.1919 20.4426 26.4896 20.6791 26.7223C20.9155 26.9551 21.2157 27.1127 21.5416 27.175C21.8675 27.2373 22.2046 27.2017 22.5102 27.0726C22.8159 26.9435 23.0765 26.7267 23.259 26.4496C23.4416 26.1725 23.538 25.8476 23.5359 25.5157C23.5317 25.0699 23.3509 24.6439 23.0332 24.3311C22.7155 24.0183 22.2867 23.8442 21.8409 23.847ZM49.7962 34.3699C49.5746 34.3708 49.3553 34.4153 49.1508 34.5011C48.9464 34.5868 48.7609 34.712 48.605 34.8695C48.449 35.027 48.3257 35.2138 48.242 35.419C48.1583 35.6243 48.1159 35.844 48.1172 36.0657C48.1126 36.2903 48.1528 36.5137 48.2355 36.7226C48.3183 36.9315 48.4419 37.1217 48.5991 37.2823C48.7563 37.4428 48.944 37.5703 49.1511 37.6574C49.3582 37.7444 49.5807 37.7893 49.8054 37.7893C50.0301 37.7893 50.2525 37.7444 50.4596 37.6574C50.6668 37.5703 50.8544 37.4428 51.0117 37.2823C51.1689 37.1217 51.2925 36.9315 51.3752 36.7226C51.4579 36.5137 51.4982 36.2903 51.4935 36.0657C51.4957 35.8423 51.4534 35.6206 51.3688 35.4138C51.2843 35.2069 51.1594 35.019 51.0013 34.8611C50.8432 34.7031 50.6552 34.5783 50.4483 34.494C50.2414 34.4097 50.0197 34.3675 49.7962 34.3699Z" fill="#FF9E6E"/>
<path d="M5.19687 3.65501V3.6499C5.18072 3.65048 5.16462 3.65219 5.14869 3.65501H5.10124C4.85843 3.67628 4.63193 3.78619 4.46498 3.96378C4.29802 4.14137 4.20229 4.37421 4.19604 4.61788V68.3571C4.19657 68.6055 4.28957 68.8448 4.45692 69.0283C4.62427 69.2119 4.85397 69.3265 5.10124 69.3499H68.804V3.65501H5.19687ZM27.7809 47.2981C27.7793 46.4846 28.0522 45.6945 28.5555 45.0554C29.0588 44.4163 29.763 43.9658 30.5541 43.7766C31.3453 43.5875 32.1771 43.6708 32.915 44.0131C33.6529 44.3554 34.2537 44.9367 34.6203 45.6629H49.621L54.3069 42.1815L51.4387 39.2739C50.9341 39.5455 50.3693 39.6861 49.7962 39.6827C49.0088 39.6777 48.2445 39.4164 47.6188 38.9383C46.9932 38.4602 46.5403 37.7913 46.3287 37.0328H39.2923C39.1373 37.0339 38.9842 36.9981 38.8459 36.9283C38.7075 36.8584 38.5877 36.7566 38.4966 36.6313L35.5255 32.4929L30.222 36.8379C30.0512 36.9707 29.8397 37.0404 29.6234 37.035H14.2693C14.0138 37.035 13.7687 36.9335 13.5879 36.7528C13.4072 36.572 13.3057 36.327 13.3057 36.0714C13.3057 35.8158 13.4072 35.5707 13.5879 35.39C13.7687 35.2093 14.0138 35.1078 14.2693 35.1078H29.2555L34.3867 30.9183L31.2119 26.4872H25.3354C25.1026 27.3364 24.5691 28.0721 23.8342 28.5572C23.0994 29.0423 22.2133 29.2437 21.3409 29.1241C20.4686 29.0044 19.6694 28.5718 19.0923 27.9067C18.5152 27.2417 18.1995 26.3895 18.204 25.509C18.2079 24.6785 18.5023 23.8756 19.0362 23.2395L13.4882 15.5088C13.4138 15.4077 13.3604 15.2928 13.3311 15.1708C13.3018 15.0487 13.2972 14.9221 13.3176 14.7983C13.338 14.6745 13.383 14.556 13.4499 14.4498C13.5168 14.3437 13.6043 14.252 13.7072 14.1802C13.866 14.0512 14.0647 13.9815 14.2693 13.9831C14.4231 13.9829 14.5748 14.0191 14.7118 14.0889C14.8489 14.1587 14.9674 14.26 15.0577 14.3846L20.6203 22.1153C21.0098 21.9682 21.4224 21.8915 21.8387 21.889C22.6276 21.89 23.3946 22.1486 24.0231 22.6255C24.6516 23.1023 25.1073 23.7713 25.3208 24.5308H31.7149C31.8685 24.5373 32.0185 24.5796 32.1529 24.6544C32.2872 24.7291 32.4022 24.8343 32.4887 24.9615L35.8978 29.6773L46.428 21.086C46.5964 20.9396 46.8108 20.8569 47.0339 20.8524H57.3729C57.5103 20.852 57.646 20.8827 57.7698 20.9421C57.8937 21.0015 58.0026 21.0881 58.0883 21.1955L66.322 30.4C66.4072 30.4926 66.4732 30.6011 66.5161 30.7194C66.559 30.8377 66.5779 30.9634 66.5718 31.089C66.5657 31.2147 66.5346 31.3379 66.4805 31.4515C66.4263 31.565 66.3501 31.6667 66.2563 31.7505C66.0667 31.9221 65.8172 32.0121 65.5617 32.0012C65.3063 31.9903 65.0654 31.8792 64.8912 31.6921L56.94 22.8088H47.377L37.0293 31.2614L39.796 35.1078H46.3141C46.5384 34.2544 47.0668 33.5123 47.8 33.0213C48.5331 32.5303 49.4205 32.3241 50.295 32.4417C51.1696 32.5592 51.971 32.9922 52.5485 33.6594C53.1261 34.3265 53.4399 35.1817 53.4309 36.0641C53.4242 36.7437 53.2297 37.4081 52.8688 37.984L55.8764 41.0062L59.7016 38.1592C59.8706 38.0416 60.0724 37.9803 60.2783 37.984H65.6073C65.8629 37.984 66.108 38.0855 66.2887 38.2662C66.4694 38.4469 66.5709 38.692 66.5709 38.9476C66.5709 39.2032 66.4694 39.4482 66.2887 39.629C66.108 39.8097 65.8629 39.9112 65.6073 39.9112H60.6068L57.2707 42.3859L66.3001 51.4956C66.4805 51.6808 66.5802 51.9299 66.5775 52.1884C66.5747 52.447 66.4697 52.6939 66.2855 52.8753C66.0984 53.0444 65.8551 53.1381 65.6029 53.1381C65.3507 53.1381 65.1074 53.0444 64.9204 52.8753L55.6866 43.5612L50.5262 47.4149C50.356 47.5381 50.1524 47.6069 49.9422 47.612H35.0072C34.9344 48.519 34.5233 49.3656 33.8554 49.9836C33.1875 50.6016 32.3116 50.9458 31.4017 50.9481C30.7621 50.9444 30.1359 50.7651 29.5913 50.4298L22.9045 57.8531C22.8116 57.9517 22.6996 58.0303 22.5754 58.0843C22.4511 58.1382 22.3172 58.1664 22.1818 58.167H14.2693C14.1416 58.1668 14.0152 58.1412 13.8975 58.0917C13.7798 58.0423 13.673 57.97 13.5834 57.879C13.4938 57.788 13.4231 57.6802 13.3754 57.5617C13.3278 57.4433 13.3041 57.3165 13.3057 57.1888C13.3072 56.9323 13.4087 56.6865 13.5887 56.5036C13.7686 56.3208 14.0128 56.2154 14.2693 56.2099H21.7584L28.2408 49.0559C27.9393 48.5191 27.7809 47.9137 27.7809 47.2981ZM65.8986 67.9702H6.54665C6.42078 67.9702 6.29617 67.9452 6.18007 67.8966C6.06397 67.848 5.9587 67.7768 5.87039 67.6871C5.78207 67.5974 5.71247 67.4911 5.66565 67.3743C5.61883 67.2574 5.59571 67.1324 5.59765 67.0066V5.96838C5.60015 5.71881 5.7014 5.48038 5.87925 5.30527C6.0571 5.13016 6.29706 5.03262 6.54665 5.03398H10.2258C10.4775 5.03398 10.7189 5.13397 10.8969 5.31194C11.0749 5.48991 11.1748 5.73129 11.1748 5.98298C11.1748 6.23467 11.0749 6.47605 10.8969 6.65403C10.7189 6.832 10.4775 6.93198 10.2258 6.93198H7.51901V14.7459H10.2273C10.3538 14.7449 10.4792 14.7692 10.5961 14.8174C10.7131 14.8656 10.8192 14.9366 10.9083 15.0264C10.9974 15.1162 11.0677 15.2228 11.1149 15.3401C11.1622 15.4575 11.1856 15.583 11.1836 15.7095C11.1817 15.9632 11.0806 16.2061 10.9019 16.3862C10.7231 16.5663 10.481 16.6693 10.2273 16.6731H7.51901V25.1411H10.2273C10.4829 25.1411 10.728 25.2426 10.9087 25.4233C11.0894 25.604 11.1909 25.8491 11.1909 26.1047C11.1909 26.3603 11.0894 26.6054 10.9087 26.7861C10.728 26.9668 10.4829 27.0683 10.2273 27.0683H7.51901V35.5509H10.2273C10.479 35.5509 10.7204 35.6509 10.8983 35.8289C11.0763 36.0068 11.1763 36.2482 11.1763 36.4999C11.1763 36.7516 11.0763 36.993 10.8983 37.1709C10.7204 37.3489 10.479 37.4489 10.2273 37.4489H7.51901V45.9403H10.2273C10.3535 45.9403 10.4785 45.9652 10.595 46.0137C10.7115 46.0623 10.8172 46.1334 10.9061 46.2229C10.995 46.3125 11.0653 46.4188 11.1129 46.5357C11.1605 46.6525 11.1846 46.7777 11.1836 46.9039C11.1817 47.1576 11.0806 47.4005 10.9019 47.5806C10.7231 47.7607 10.481 47.8637 10.2273 47.8675H7.51901V56.3355H10.2273C10.481 56.3393 10.7231 56.4422 10.9019 56.6223C11.0806 56.8024 11.1817 57.0453 11.1836 57.2991C11.1856 57.4255 11.1622 57.5511 11.1149 57.6684C11.0677 57.7857 10.9974 57.8924 10.9083 57.9822C10.8192 58.072 10.7131 58.143 10.5961 58.1912C10.4792 58.2393 10.3538 58.2636 10.2273 58.2627H7.51901V66.0737H65.2766H65.446H65.9935C66.1887 66.1366 66.3592 66.2592 66.481 66.4243C66.6028 66.5893 66.6697 66.7884 66.6724 66.9935C66.6736 67.22 66.5976 67.4402 66.457 67.6177C66.3163 67.7953 66.1194 67.9196 65.8986 67.9702Z" fill="#FF9E6E"/>
</svg>
