<svg width="121" height="45" viewBox="0 0 121 45" fill="none" xmlns="http://www.w3.org/2000/svg">
<g clip-path="url(#clip0_79_3602)">
<path d="M71.7 19.22C67.1093 19.22 64.814 16.8073 64.814 11.982C64.814 9.386 65.3933 7.50867 66.552 6.35C67.7107 5.19133 69.4267 4.612 71.7 4.612C73.9733 4.612 75.6893 5.19133 76.848 6.35C78.0067 7.50867 78.586 9.386 78.586 11.982C78.586 16.8073 76.2907 19.22 71.7 19.22ZM71.7 16.69C73.0347 16.69 74.01 16.3087 74.626 15.546C75.2567 14.7687 75.572 13.5807 75.572 11.982C75.572 10.2073 75.2567 8.96067 74.626 8.242C74.01 7.50867 73.0347 7.142 71.7 7.142C70.3653 7.142 69.3827 7.50867 68.752 8.242C68.136 8.96067 67.828 10.2073 67.828 11.982C67.828 13.5807 68.136 14.7687 68.752 15.546C69.3827 16.3087 70.3653 16.69 71.7 16.69ZM84.1175 19L80.0035 8.572H83.1055L85.7015 16.008L88.3195 8.572H91.3995L87.3075 19H84.1175ZM97.7153 19.22C95.9113 19.22 94.4813 18.7727 93.4253 17.878C92.3693 16.9687 91.8413 15.5973 91.8413 13.764C91.8413 12.1067 92.2813 10.794 93.1613 9.826C94.056 8.84333 95.3833 8.352 97.1433 8.352C98.7567 8.352 99.9887 8.77733 100.839 9.628C101.705 10.464 102.137 11.564 102.137 12.928V14.82H94.5913C94.7527 15.656 95.134 16.228 95.7353 16.536C96.3513 16.844 97.2167 16.998 98.3313 16.998C98.8887 16.998 99.4533 16.9467 100.025 16.844C100.612 16.7413 101.111 16.6093 101.521 16.448V18.56C101.037 18.78 100.473 18.9413 99.8273 19.044C99.182 19.1613 98.478 19.22 97.7153 19.22ZM94.5913 12.994H99.5413V12.422C99.5413 11.8207 99.3653 11.3513 99.0133 11.014C98.6613 10.662 98.0673 10.486 97.2313 10.486C96.2487 10.486 95.5593 10.684 95.1633 11.08C94.782 11.476 94.5913 12.114 94.5913 12.994ZM104.205 19V8.572H106.955L107.065 9.562C107.491 9.23933 108.026 8.96067 108.671 8.726C109.331 8.47667 110.021 8.352 110.739 8.352C112.118 8.352 113.123 8.67467 113.753 9.32C114.384 9.96533 114.699 10.9627 114.699 12.312V19H111.729V12.466C111.729 11.762 111.583 11.2633 111.289 10.97C111.011 10.6767 110.483 10.53 109.705 10.53C109.251 10.53 108.789 10.6327 108.319 10.838C107.865 11.0433 107.483 11.3 107.175 11.608V19H104.205Z" fill="#F9AA4B"/>
<path d="M69.654 41.22C68.7447 41.22 67.894 41.154 67.102 41.022C66.3247 40.89 65.65 40.6993 65.078 40.45V37.832C65.7233 38.096 66.42 38.3087 67.168 38.47C67.916 38.6313 68.6493 38.712 69.368 38.712C70.3947 38.712 71.15 38.6167 71.634 38.426C72.118 38.2353 72.36 37.8027 72.36 37.128C72.36 36.7027 72.2573 36.3653 72.052 36.116C71.8467 35.8667 71.4873 35.6467 70.974 35.456C70.4753 35.2507 69.764 35.0233 68.84 34.774C67.3587 34.3633 66.3173 33.85 65.716 33.234C65.1147 32.618 64.814 31.7673 64.814 30.682C64.814 29.3767 65.2907 28.372 66.244 27.668C67.1973 26.964 68.5833 26.612 70.402 26.612C71.2527 26.612 72.0447 26.6707 72.778 26.788C73.5113 26.9053 74.1053 27.0447 74.56 27.206V29.824C73.3573 29.3693 72.1033 29.142 70.798 29.142C69.874 29.142 69.148 29.2447 68.62 29.45C68.092 29.6407 67.828 30.0513 67.828 30.682C67.828 31.0487 67.9233 31.342 68.114 31.562C68.3047 31.782 68.6273 31.98 69.082 32.156C69.5513 32.332 70.204 32.53 71.04 32.75C72.1987 33.058 73.0933 33.4247 73.724 33.85C74.3547 34.2753 74.7873 34.7593 75.022 35.302C75.2713 35.8447 75.396 36.4533 75.396 37.128C75.396 38.36 74.9267 39.35 73.988 40.098C73.0493 40.846 71.6047 41.22 69.654 41.22ZM79.2085 41L76.4585 30.572H79.4285L81.0125 37.348L82.7505 31.914V30.572H85.0165L86.9965 37.348L88.5365 30.572H91.4845L88.7565 41H86.0285L84.0265 34.906L81.9805 41H79.2085ZM95.8386 41.22C95.1786 41.22 94.5626 41.1027 93.9906 40.868C93.4333 40.6187 92.9786 40.2593 92.6266 39.79C92.2893 39.306 92.1206 38.7047 92.1206 37.986C92.1206 36.9593 92.48 36.138 93.1986 35.522C93.932 34.906 95.01 34.598 96.4326 34.598H99.5126V34.312C99.5126 33.6667 99.3293 33.212 98.9626 32.948C98.6106 32.684 97.892 32.552 96.8066 32.552C95.6186 32.552 94.4746 32.7353 93.3746 33.102V31.012C93.8586 30.8213 94.4453 30.6673 95.1346 30.55C95.8386 30.418 96.6013 30.352 97.4226 30.352C98.992 30.352 100.202 30.6747 101.053 31.32C101.918 31.9507 102.351 32.97 102.351 34.378V41H99.7766L99.6226 40.054C99.212 40.4207 98.706 40.7067 98.1046 40.912C97.5033 41.1173 96.748 41.22 95.8386 41.22ZM96.6526 39.262C97.3126 39.262 97.8846 39.152 98.3686 38.932C98.8526 38.712 99.234 38.4333 99.5126 38.096V36.446H96.4986C95.34 36.446 94.7606 36.9227 94.7606 37.876C94.7606 38.8 95.3913 39.262 96.6526 39.262ZM104.742 45.752V30.572H107.316L107.47 31.54C107.925 31.1587 108.424 30.8653 108.966 30.66C109.509 30.4547 110.147 30.352 110.88 30.352C112.406 30.352 113.579 30.77 114.4 31.606C115.236 32.4273 115.654 33.7767 115.654 35.654C115.654 37.5313 115.207 38.932 114.312 39.856C113.432 40.7653 112.23 41.22 110.704 41.22C109.531 41.22 108.534 40.956 107.712 40.428V45.752H104.742ZM109.956 39.042C110.836 39.042 111.504 38.7707 111.958 38.228C112.413 37.6853 112.64 36.8347 112.64 35.676C112.64 34.5613 112.435 33.762 112.024 33.278C111.614 32.7793 110.954 32.53 110.044 32.53C109.135 32.53 108.358 32.8453 107.712 33.476V38.25C108.02 38.4847 108.343 38.6753 108.68 38.822C109.032 38.9687 109.458 39.042 109.956 39.042Z" fill="#47C6CC"/>
<path d="M11.1614 43.7902C11.1614 44.4623 10.6235 45 9.95113 45H6.52204C5.84966 45 5.31177 44.4623 5.31177 43.7902C5.31177 43.1181 5.84966 42.5804 6.52204 42.5804H10.0184C10.6235 42.6476 11.1614 43.1181 11.1614 43.7902Z" fill="#F9AA4B"/>
<path d="M43.5696 43.7902C43.5696 44.4623 44.1075 45 44.7798 45H48.2762C48.9486 45 49.4864 44.4623 49.4864 43.7902C49.4864 43.1181 48.9486 42.5804 48.2762 42.5804H44.7798C44.1075 42.6476 43.5696 43.1181 43.5696 43.7902Z" fill="#F9AA4B"/>
<path d="M55 40.6985C55 41.7739 54.1259 42.7148 52.9829 42.7148H2.01711C0.874083 42.7148 0 41.7739 0 40.6985V5.41258C0 4.3372 0.874083 3.39624 2.01711 3.39624H52.9829C54.1259 3.39624 55 4.3372 55 5.41258V40.6985Z" fill="#47C6CC"/>
<path d="M52.176 40.8329H2.82396C1.27751 40.8329 0 39.6231 0 38.1445V39.892C0 41.4378 1.27751 42.7148 2.82396 42.7148H52.2433C53.7897 42.7148 55.0672 41.4378 55.0672 39.892V38.1445C55 39.6231 53.7225 40.8329 52.176 40.8329Z" fill="#26A2BD"/>
<path d="M37.5855 35.6576C37.5855 36.733 36.7114 37.674 35.5684 37.674H5.71511C4.57208 37.674 3.698 36.733 3.698 35.6576V10.5206C3.698 9.44523 4.57208 8.50427 5.71511 8.50427H35.5684C36.7114 8.50427 37.5855 9.44523 37.5855 10.5206V35.6576Z" fill="#0E4F5C"/>
<path d="M8.53909 34.8511C7.39606 34.8511 6.52197 33.9101 6.52197 32.8348V13.2763C6.52197 12.2009 7.39606 11.2599 8.53909 11.2599H32.7445C33.8875 11.2599 34.7616 12.2009 34.7616 13.2763V32.8348C34.7616 33.9101 33.8875 34.8511 32.7445 34.8511H8.53909Z" fill="#F9AA4B"/>
<path d="M41.418 34.7167C41.418 35.1199 41.0818 35.3888 40.7456 35.3888C40.3422 35.3888 40.0732 35.0527 40.0732 34.7167V11.9993C40.0732 11.596 40.4094 11.3271 40.7456 11.3271C41.149 11.3271 41.418 11.6632 41.418 11.9993V34.7167Z" fill="white"/>
<path d="M52.0417 12.4025C52.0417 14.5533 50.2935 16.368 48.0747 16.368C45.9231 16.368 44.1077 14.6205 44.1077 12.4025C44.1077 10.2518 45.8558 8.43707 48.0747 8.43707C50.2935 8.50428 52.0417 10.2518 52.0417 12.4025Z" fill="white"/>
<path d="M48.1419 15.4271C46.461 15.4271 45.1162 14.0828 45.1162 12.4026C45.1162 10.7223 46.461 9.37805 48.1419 9.37805C49.8228 9.37805 51.1676 10.7223 51.1676 12.4026C51.1003 14.0828 49.7556 15.4271 48.1419 15.4271Z" fill="#F8472F"/>
<path d="M52.0417 22.417C52.0417 24.5678 50.2935 26.3825 48.0747 26.3825C45.9231 26.3825 44.1077 24.635 44.1077 22.417C44.1077 20.2662 45.8558 18.4515 48.0747 18.4515C50.2935 18.4515 52.0417 20.199 52.0417 22.417Z" fill="white"/>
<path d="M48.1419 25.3743C46.461 25.3743 45.1162 24.0301 45.1162 22.3498C45.1162 20.6695 46.461 19.3253 48.1419 19.3253C49.8228 19.3253 51.1676 20.6695 51.1676 22.3498C51.1003 24.0301 49.7556 25.3743 48.1419 25.3743Z" fill="#F8472F"/>
<path d="M48.1418 24.7694C46.5281 24.7694 45.2506 23.6268 45.1833 22.2826C45.1833 22.3498 45.1833 22.417 45.1833 22.4842C45.1833 24.1645 46.5281 25.5087 48.209 25.5087C49.89 25.5087 51.2347 24.1645 51.2347 22.4842C51.2347 22.417 51.2347 22.3498 51.2347 22.2826C51.033 23.6268 49.7555 24.7694 48.1418 24.7694Z" fill="#F03118"/>
<path d="M48.1418 14.7549C46.5281 14.7549 45.2506 13.6124 45.1833 12.2681C45.1833 12.3353 45.1833 12.4026 45.1833 12.4698C45.1833 14.15 46.5281 15.4943 48.209 15.4943C49.89 15.4943 51.2347 14.15 51.2347 12.4698C51.2347 12.4026 51.2347 12.3353 51.2347 12.2681C51.033 13.6124 49.7555 14.7549 48.1418 14.7549Z" fill="#F03118"/>
<path d="M52.0416 29.6086H44.1748V32.6331H52.0416V29.6086Z" fill="#FFC259"/>
<path d="M52.0416 34.8511H44.1748V37.8756H52.0416V34.8511Z" fill="#FFC259"/>
</g>
<defs>
<clipPath id="clip0_79_3602">
<rect width="121" height="45" fill="white"/>
</clipPath>
</defs>
</svg>
