<svg width="60" height="48" viewBox="0 0 60 48" fill="none" xmlns="http://www.w3.org/2000/svg">
<path d="M21 24C27.6281 24 33 18.6281 33 12C33 5.37188 27.6281 0 21 0C14.3719 0 9 5.37188 9 12C9 18.6281 14.3719 24 21 24ZM29.4 27H27.8344C25.7531 27.9562 23.4375 28.5 21 28.5C18.5625 28.5 16.2563 27.9562 14.1656 27H12.6C5.64375 27 0 32.6437 0 39.6V43.5C0 45.9844 2.01562 48 4.5 48H37.5C39.9844 48 42 45.9844 42 43.5V39.6C42 32.6437 36.3563 27 29.4 27ZM59.6812 14.9625L57.075 12.3281C56.6437 11.8875 55.9406 11.8875 55.5 12.3187L45.675 22.0687L41.4094 17.775C40.9781 17.3344 40.275 17.3344 39.8344 17.7656L37.2 20.3812C36.7594 20.8125 36.7594 21.5156 37.1906 21.9562L44.85 29.6719C45.2812 30.1125 45.9844 30.1125 46.425 29.6813L59.6719 16.5375C60.1031 16.0969 60.1125 15.3938 59.6812 14.9625Z" fill="#47C6CC"/>
</svg>
