<svg width="53" height="43" viewBox="0 0 53 43" fill="none" xmlns="http://www.w3.org/2000/svg">
<path d="M53 0.300003V42.7H0.848042C0.00534247 42.7 -0.254358 42.1461 0.275642 41.4678L12.1185 26.2355C12.2372 26.0764 12.3886 25.9444 12.5625 25.8484C12.7363 25.7525 12.9287 25.6948 13.1267 25.6793C13.3246 25.6637 13.5236 25.6906 13.7104 25.7582C13.8971 25.8258 14.0672 25.9326 14.2093 26.0713L17.9697 29.6064C18.1053 29.744 18.2709 29.8485 18.4535 29.9116C18.6361 29.9747 18.8309 29.9947 19.0226 29.9701C19.2142 29.9454 19.3976 29.8768 19.5583 29.7696C19.7191 29.6624 19.8529 29.5194 19.9492 29.352L28.0238 16.791C28.1194 16.6244 28.2525 16.4825 28.4126 16.3764C28.5727 16.2703 28.7553 16.203 28.9459 16.1799C29.1365 16.1567 29.3299 16.1783 29.5107 16.243C29.6915 16.3077 29.8548 16.4136 29.9874 16.5525L35.7406 22.1069C36.3554 22.7031 37.2219 22.5839 37.6592 21.8419L51.2616 1.2116C51.7015 0.464303 52.3375 0.300003 53 0.300003Z" fill="#F8472F"/>
</svg>
