<svg width="18" height="14" viewBox="0 0 18 14" fill="none" xmlns="http://www.w3.org/2000/svg">
<path d="M3.64836 13.2037C3.64836 13.4234 3.47253 13.5992 3.25275 13.5992H2.13187C1.91209 13.5992 1.73627 13.4234 1.73627 13.2037C1.73627 12.984 1.91209 12.8083 2.13187 12.8083H3.27473C3.47253 12.8302 3.64836 12.984 3.64836 13.2037Z" fill="#F9AA4B"/>
<path d="M14.2417 13.2037C14.2417 13.4234 14.4175 13.5992 14.6373 13.5992H15.7802C15.9999 13.5992 16.1758 13.4234 16.1758 13.2037C16.1758 12.984 15.9999 12.8083 15.7802 12.8083H14.6373C14.4175 12.8302 14.2417 12.984 14.2417 13.2037Z" fill="#F9AA4B"/>
<path d="M17.978 12.1931C17.978 12.5446 17.6923 12.8522 17.3187 12.8522H0.659341C0.285714 12.8522 0 12.5446 0 12.1931V0.659087C0 0.307574 0.285714 0 0.659341 0H17.3187C17.6923 0 17.978 0.307574 17.978 0.659087V12.1931Z" fill="#47C6CC"/>
<path d="M17.0549 12.2371H0.923077C0.417582 12.2371 0 11.8416 0 11.3583V11.9295C0 12.4348 0.417582 12.8522 0.923077 12.8522H17.0769C17.5824 12.8522 18 12.4348 18 11.9295V11.3583C17.978 11.8416 17.5604 12.2371 17.0549 12.2371Z" fill="#26A2BD"/>
<path d="M12.2857 10.5454C12.2857 10.8969 12 11.2045 11.6264 11.2045H1.86814C1.49452 11.2045 1.2088 10.8969 1.2088 10.5454V2.32876C1.2088 1.97725 1.49452 1.66968 1.86814 1.66968H11.6264C12 1.66968 12.2857 1.97725 12.2857 2.32876V10.5454Z" fill="#0E4F5C"/>
<path d="M2.79118 10.2817C2.41755 10.2817 2.13184 9.97418 2.13184 9.62266V3.22952C2.13184 2.87801 2.41755 2.57043 2.79118 2.57043H10.7033C11.0769 2.57043 11.3626 2.87801 11.3626 3.22952V9.62266C11.3626 9.97418 11.0769 10.2817 10.7033 10.2817H2.79118Z" fill="#F9AA4B"/>
<path d="M13.5384 10.2378C13.5384 10.3696 13.4285 10.4575 13.3187 10.4575C13.1868 10.4575 13.0989 10.3477 13.0989 10.2378V2.8121C13.0989 2.68029 13.2088 2.59241 13.3187 2.59241C13.4505 2.59241 13.5384 2.70226 13.5384 2.8121V10.2378Z" fill="white"/>
<path d="M17.011 2.94391C17.011 3.64693 16.4396 4.24011 15.7143 4.24011C15.011 4.24011 14.4176 3.6689 14.4176 2.94391C14.4176 2.24088 14.989 1.64771 15.7143 1.64771C16.4396 1.66967 17.011 2.24088 17.011 2.94391Z" fill="white"/>
<path d="M15.7363 3.93255C15.1868 3.93255 14.7473 3.49316 14.7473 2.94392C14.7473 2.39468 15.1868 1.95529 15.7363 1.95529C16.2857 1.95529 16.7253 2.39468 16.7253 2.94392C16.7033 3.49316 16.2637 3.93255 15.7363 3.93255Z" fill="#F8472F"/>
<path d="M17.011 6.21738C17.011 6.9204 16.4396 7.51358 15.7143 7.51358C15.011 7.51358 14.4176 6.94237 14.4176 6.21738C14.4176 5.51435 14.989 4.92117 15.7143 4.92117C16.4396 4.92117 17.011 5.49238 17.011 6.21738Z" fill="white"/>
<path d="M15.7363 7.18405C15.1868 7.18405 14.7473 6.74466 14.7473 6.19542C14.7473 5.64618 15.1868 5.20679 15.7363 5.20679C16.2857 5.20679 16.7253 5.64618 16.7253 6.19542C16.7033 6.74466 16.2637 7.18405 15.7363 7.18405Z" fill="#F8472F"/>
<path d="M15.7363 6.9863C15.2088 6.9863 14.7912 6.61282 14.7692 6.17343C14.7692 6.1954 14.7692 6.21737 14.7692 6.23934C14.7692 6.78858 15.2088 7.22797 15.7582 7.22797C16.3077 7.22797 16.7472 6.78858 16.7472 6.23934C16.7472 6.21737 16.7472 6.1954 16.7472 6.17343C16.6813 6.61282 16.2637 6.9863 15.7363 6.9863Z" fill="#F03118"/>
<path d="M15.7363 3.71287C15.2088 3.71287 14.7912 3.33939 14.7692 2.89999C14.7692 2.92196 14.7692 2.94393 14.7692 2.9659C14.7692 3.51514 15.2088 3.95453 15.7582 3.95453C16.3077 3.95453 16.7472 3.51514 16.7472 2.9659C16.7472 2.94393 16.7472 2.92196 16.7472 2.89999C16.6813 3.33939 16.2637 3.71287 15.7363 3.71287Z" fill="#F03118"/>
<path d="M17.011 8.56812H14.4396V9.55675H17.011V8.56812Z" fill="#FFC259"/>
<path d="M17.011 10.2818H14.4396V11.2704H17.011V10.2818Z" fill="#FFC259"/>
</svg>
