<svg width="24" height="24" viewBox="0 0 24 24" fill="none" xmlns="http://www.w3.org/2000/svg">
<circle cx="12" cy="12" r="12" fill="#F9AA4B"/>
<path d="M7.33335 12.6667L14.78 12.6667L11.5267 15.92C11.2667 16.18 11.2667 16.6067 11.5267 16.8667C11.7867 17.1267 12.2067 17.1267 12.4667 16.8667L16.86 12.4733C17.12 12.2133 17.12 11.7933 16.86 11.5333L12.4667 7.13999C12.2067 6.87999 11.7867 6.87999 11.5267 7.13999C11.2667 7.39999 11.2667 7.81999 11.5267 8.07999L14.78 11.3333L7.33335 11.3333C6.96669 11.3333 6.66669 11.6333 6.66669 12C6.66669 12.3667 6.96669 12.6667 7.33335 12.6667Z" fill="#814A0A"/>
</svg>
